HIERARCHY
ROOT Root
{
  OFFSET 0.0 0.0 0.0
  CHANNELS 6 Xposition Yposition Zposition Zrotation Yrotation Xrotation
  JOINT Hips
  {
    OFFSET 0.0 100.0 0.0
    CHANNELS 6 Xposition Yposition Zposition Zrotation Yrotation Xrotation
    JOINT Spine1
    {
      OFFSET -0.013727 5.003763 -0.053727
      CHANNELS 3 Zrotation Yrotation Xrotation
      JOINT Spine2
      {
        OFFSET -0.0 7.125301 -0.029825
        CHANNELS 3 Zrotation Yrotation Xrotation
        JOINT Chest
        {
          OFFSET -1e-06 7.550063 -0.815971
          CHANNELS 3 Zrotation Yrotation Xrotation
          JOINT Neck1
          {
            OFFSET -0.181677 26.311295 -0.553348
            CHANNELS 3 Zrotation Yrotation Xrotation
            JOINT Neck2
            {
              OFFSET -3e-06 7.709397 2.302585
              CHANNELS 3 Zrotation Yrotation Xrotation
              JOINT Head
              {
                OFFSET -5e-06 6.128916 1.953709
                CHANNELS 3 Zrotation Yrotation Xrotation
                JOINT HeadEnd
                {
                  OFFSET 0.003598 16.065403 -1.835379
                  CHANNELS 3 Zrotation Yrotation Xrotation
                }
                JOINT Jaw
                {
                  OFFSET 0.002637 0.475592 3.094941
                  CHANNELS 3 Zrotation Yrotation Xrotation
                }
                JOINT LeftEye
                {
                  OFFSET 3.206381 5.380205 7.586883
                  CHANNELS 3 Zrotation Yrotation Xrotation
                }
                JOINT RightEye
                {
                  OFFSET -3.22244 5.361869 7.558234
                  CHANNELS 3 Zrotation Yrotation Xrotation
                }
              }
            }
          }
          JOINT LeftShoulder
          {
            OFFSET 1.621652 23.237164 5.113413
            CHANNELS 3 Zrotation Yrotation Xrotation
            JOINT LeftArm
            {
              OFFSET 14.919846 2e-06 -5.502326
              CHANNELS 3 Zrotation Yrotation Xrotation
              JOINT LeftForeArm
              {
                OFFSET 28.739307 0.0 -0.002588
                CHANNELS 3 Zrotation Yrotation Xrotation
                JOINT LeftHand
                {
                  OFFSET 27.093981 -1e-06 0.002609
                  CHANNELS 3 Zrotation Yrotation Xrotation
                  JOINT LeftHandThumb1
                  {
                    OFFSET 2.276482 -1.392045 3.191413
                    CHANNELS 3 Zrotation Yrotation Xrotation
                    JOINT LeftHandThumb2
                    {
                      OFFSET 4.012836 -1.828127 1.641654
                      CHANNELS 3 Zrotation Yrotation Xrotation
                      JOINT LeftHandThumb3
                      {
                        OFFSET 2.798515 0.0 -3e-06
                        CHANNELS 3 Zrotation Yrotation Xrotation
                        JOINT LeftHandThumbEnd
                        {
                          OFFSET 3.180793 -4e-06 4e-06
                          CHANNELS 3 Zrotation Yrotation Xrotation
                        }
                      }
                    }
                  }
                  JOINT LeftHandIndex1
                  {
                    OFFSET 3.247555 -0.531998 2.296169
                    CHANNELS 3 Zrotation Yrotation Xrotation
                    JOINT LeftHandIndex2
                    {
                      OFFSET 6.364578 0.01206 0.1786
                      CHANNELS 3 Zrotation Yrotation Xrotation
                      JOINT LeftHandIndex3
                      {
                        OFFSET 3.662364 0.0 0.0
                        CHANNELS 3 Zrotation Yrotation Xrotation
                        JOINT LeftHandIndex4
                        {
                          OFFSET 2.329242 4e-06 4e-06
                          CHANNELS 3 Zrotation Yrotation Xrotation
                          JOINT LeftHandIndexEnd
                          {
                            OFFSET 2.759615 -0.180537 -0.113024
                            CHANNELS 3 Zrotation Yrotation Xrotation
                          }
                        }
                      }
                    }
                  }
                  JOINT LeftHandMiddle1
                  {
                    OFFSET 3.163495 0.240981 1.000332
                    CHANNELS 3 Zrotation Yrotation Xrotation
                    JOINT LeftHandMiddle2
                    {
                      OFFSET 6.19078 -0.259278 -1.002548
                      CHANNELS 3 Zrotation Yrotation Xrotation
                      JOINT LeftHandMiddle3
                      {
                        OFFSET 4.35652 -4e-06 -1e-06
                        CHANNELS 3 Zrotation Yrotation Xrotation
                        JOINT LeftHandMiddle4
                        {
                          OFFSET 2.996877 -8e-06 0.0
                          CHANNELS 3 Zrotation Yrotation Xrotation
                          JOINT LeftHandMiddleEnd
                          {
                            OFFSET 2.304287 -0.294569 -0.031741
                            CHANNELS 3 Zrotation Yrotation Xrotation
                          }
                        }
                      }
                    }
                  }
                  JOINT LeftHandRing1
                  {
                    OFFSET 2.882643 -0.053652 -0.322543
                    CHANNELS 3 Zrotation Yrotation Xrotation
                    JOINT LeftHandRing2
                    {
                      OFFSET 5.854541 -0.486202 -1.373841
                      CHANNELS 3 Zrotation Yrotation Xrotation
                      JOINT LeftHandRing3
                      {
                        OFFSET 4.350578 0.0 3e-06
                        CHANNELS 3 Zrotation Yrotation Xrotation
                        JOINT LeftHandRing4
                        {
                          OFFSET 2.651321 7e-06 2e-06
                          CHANNELS 3 Zrotation Yrotation Xrotation
                          JOINT LeftHandRingEnd
                          {
                            OFFSET 1.936105 0.077687 -7.1e-05
                            CHANNELS 3 Zrotation Yrotation Xrotation
                          }
                        }
                      }
                    }
                  }
                  JOINT LeftHandPinky1
                  {
                    OFFSET 2.8655 -0.310005 -1.600378
                    CHANNELS 3 Zrotation Yrotation Xrotation
                    JOINT LeftHandPinky2
                    {
                      OFFSET 5.087849 -1.331141 -1.77123
                      CHANNELS 3 Zrotation Yrotation Xrotation
                      JOINT LeftHandPinky3
                      {
                        OFFSET 3.070974 4e-06 0.0
                        CHANNELS 3 Zrotation Yrotation Xrotation
                        JOINT LeftHandPinky4
                        {
                          OFFSET 1.549672 0.0 1e-06
                          CHANNELS 3 Zrotation Yrotation Xrotation
                          JOINT LeftHandPinkyEnd
                          {
                            OFFSET 1.944893 -0.157802 0.057219
                            CHANNELS 3 Zrotation Yrotation Xrotation
                          }
                        }
                      }
                    }
                  }
                }
              }
            }
          }
          JOINT RightShoulder
          {
            OFFSET -1.380118 23.180309 5.214158
            CHANNELS 3 Zrotation Yrotation Xrotation
            JOINT RightArm
            {
              OFFSET -15.037196 1.2e-05 -5.545604
              CHANNELS 3 Zrotation Yrotation Xrotation
              JOINT RightForeArm
              {
                OFFSET -28.736639 2e-06 -0.002597
                CHANNELS 3 Zrotation Yrotation Xrotation
                JOINT RightHand
                {
                  OFFSET -27.133619 -0.0 0.002613
                  CHANNELS 3 Zrotation Yrotation Xrotation
                  JOINT RightHandThumb1
                  {
                    OFFSET -2.274032 -1.383988 3.163127
                    CHANNELS 3 Zrotation Yrotation Xrotation
                    JOINT RightHandThumb2
                    {
                      OFFSET -4.011429 -1.827466 1.640914
                      CHANNELS 3 Zrotation Yrotation Xrotation
                      JOINT RightHandThumb3
                      {
                        OFFSET -2.794935 -4e-06 -3e-06
                        CHANNELS 3 Zrotation Yrotation Xrotation
                        JOINT RightHandThumbEnd
                        {
                          OFFSET -3.183852 4e-06 1e-06
                          CHANNELS 3 Zrotation Yrotation Xrotation
                        }
                      }
                    }
                  }
                  JOINT RightHandIndex1
                  {
                    OFFSET -3.253266 -0.520057 2.282866
                    CHANNELS 3 Zrotation Yrotation Xrotation
                    JOINT RightHandIndex2
                    {
                      OFFSET -6.341917 0.012471 0.178266
                      CHANNELS 3 Zrotation Yrotation Xrotation
                      JOINT RightHandIndex3
                      {
                        OFFSET -3.654871 -8e-06 -0.0
                        CHANNELS 3 Zrotation Yrotation Xrotation
                        JOINT RightHandIndex4
                        {
                          OFFSET -2.327586 0.0 1e-06
                          CHANNELS 3 Zrotation Yrotation Xrotation
                          JOINT RightHandIndexEnd
                          {
                            OFFSET -2.76179 -0.180656 -0.113078
                            CHANNELS 3 Zrotation Yrotation Xrotation
                          }
                        }
                      }
                    }
                  }
                  JOINT RightHandMiddle1
                  {
                    OFFSET -3.168106 0.246593 1.00103
                    CHANNELS 3 Zrotation Yrotation Xrotation
                    JOINT RightHandMiddle2
                    {
                      OFFSET -6.180828 -0.258836 -1.000895
                      CHANNELS 3 Zrotation Yrotation Xrotation
                      JOINT RightHandMiddle3
                      {
                        OFFSET -4.348901 0.0 -0.0
                        CHANNELS 3 Zrotation Yrotation Xrotation
                        JOINT RightHandMiddle4
                        {
                          OFFSET -3.00024 -4e-06 -2e-06
                          CHANNELS 3 Zrotation Yrotation Xrotation
                          JOINT RightHandMiddleEnd
                          {
                            OFFSET -2.30252 -0.29437 -0.031706
                            CHANNELS 3 Zrotation Yrotation Xrotation
                          }
                        }
                      }
                    }
                  }
                  JOINT RightHandRing1
                  {
                    OFFSET -2.88569 -0.067952 -0.308858
                    CHANNELS 3 Zrotation Yrotation Xrotation
                    JOINT RightHandRing2
                    {
                      OFFSET -5.854198 -0.48613 -1.373731
                      CHANNELS 3 Zrotation Yrotation Xrotation
                      JOINT RightHandRing3
                      {
                        OFFSET -4.33881 -4e-06 -0.0
                        CHANNELS 3 Zrotation Yrotation Xrotation
                        JOINT RightHandRing4
                        {
                          OFFSET -2.654903 -4e-06 4e-06
                          CHANNELS 3 Zrotation Yrotation Xrotation
                          JOINT RightHandRingEnd
                          {
                            OFFSET -1.933568 0.077527 -5.2e-05
                            CHANNELS 3 Zrotation Yrotation Xrotation
                          }
                        }
                      }
                    }
                  }
                  JOINT RightHandPinky1
                  {
                    OFFSET -2.866425 -0.342796 -1.584145
                    CHANNELS 3 Zrotation Yrotation Xrotation
                    JOINT RightHandPinky2
                    {
                      OFFSET -5.091371 -1.332055 -1.772385
                      CHANNELS 3 Zrotation Yrotation Xrotation
                      JOINT RightHandPinky3
                      {
                        OFFSET -3.062664 -4e-06 1e-06
                        CHANNELS 3 Zrotation Yrotation Xrotation
                        JOINT RightHandPinky4
                        {
                          OFFSET -1.546529 4e-06 -2e-06
                          CHANNELS 3 Zrotation Yrotation Xrotation
                          JOINT RightHandPinkyEnd
                          {
                            OFFSET -1.945119 -0.157718 0.057211
                            CHANNELS 3 Zrotation Yrotation Xrotation
                          }
                        }
                      }
                    }
                  }
                }
              }
            }
          }
        }
      }
    }
    JOINT LeftLeg
    {
      OFFSET 10.043214 -8.434526 2.595655
      CHANNELS 3 Zrotation Yrotation Xrotation
      JOINT LeftShin
      {
        OFFSET -1e-06 -43.221752 -0.802913
        CHANNELS 3 Zrotation Yrotation Xrotation
        JOINT LeftFoot
        {
          OFFSET 1e-06 -42.155094 -3.481523
          CHANNELS 3 Zrotation Yrotation Xrotation
          JOINT LeftToeBase
          {
            OFFSET 0.0 -5.059472 13.231529
            CHANNELS 3 Zrotation Yrotation Xrotation
            JOINT LeftToeEnd
            {
              OFFSET -0.009607 -1.647619 6.513017
              CHANNELS 3 Zrotation Yrotation Xrotation
            }
          }
        }
      }
    }
    JOINT RightLeg
    {
      OFFSET -10.047278 -8.29526 2.620317
      CHANNELS 3 Zrotation Yrotation Xrotation
      JOINT RightShin
      {
        OFFSET 1e-06 -43.362206 -0.805556
        CHANNELS 3 Zrotation Yrotation Xrotation
        JOINT RightFoot
        {
          OFFSET 2e-06 -42.117393 -3.478398
          CHANNELS 3 Zrotation Yrotation Xrotation
          JOINT RightToeBase
          {
            OFFSET -0.0 -5.079609 13.284196
            CHANNELS 3 Zrotation Yrotation Xrotation
            JOINT RightToeEnd
            {
              OFFSET 0.009532 -1.634378 6.460591
              CHANNELS 3 Zrotation Yrotation Xrotation
            }
          }
        }
      }
    }
  }
}
MOTION
Frames: 5
Frame Time: 0.03333333333333333
0.0 0.0 0.0 0.0 -0.0 0.0 -1.276077 99.001358 -1.33427 3.029973 -0.554022 6.066138 -2.851597 -0.198356 -0.582528 -0.80263 1.409128 -4.902735 -0.938486 -0.655933 7.884461 1.997086 1.975506 5.998501 -0.523277 0.576662 -3.84145 -0.31185 0.670506 -5.616482 7.7e-05 -2.2e-05 6e-06 0.03432 -0.034104 -0.034517 0.749343 -3.772666 -10.729499 -0.68786 3.714934 -10.738422 -35.272533 3.213903 17.017191 -34.448528 -9.137778 17.892864 -0.559479 -29.288214 0.43864 14.12908 4.422604 3.390657 -5.882112 9.86129 0.702592 -10.936881 -0.360576 7.156211 1e-06 8.774831 -0.0 -16.839411 18.452047 5.730228 -1.844034 2.498506 -2.507281 -10.163608 4.678946 4.621113 -20.97604 -6e-06 1e-06 -21.226301 2.451695 -3.593999 0.0 -6e-06 -1e-06 -1.362683 2.240799 -0.746324 -21.334932 0.584908 3.008327 -13.821226 -5e-06 -1e-06 -23.887192 -0.249083 -0.839481 -60.694477 2.327257 -1.109802 -0.294025 1.679688 0.833258 -14.218223 0.093213 1.300582 -34.212082 -0.287569 0.967172 -20.033234 0.964535 1.212846 0.0 2e-06 0.0 -3.44039 0.788233 0.501654 -15.928201 -3.167313 2.999709 -6.33883 -2e-06 0.0 -18.123459 3.648181 -4.905673 -4e-06 -1e-06 -1e-06 21.231155 6.1732 17.821329 53.327175 7.770523 17.533024 -0.444682 38.797142 -0.408331 -13.391921 -10.539066 -3.999615 2.243545 -5.25504 -3.180161 14.282902 -0.826597 6.952506 -1e-06 -12.69061 1e-06 16.793177 -17.463511 2.146783 1.665668 -1.955923 -2.878301 4.727803 -4.17059 4.993927 11.020536 1e-06 -3e-06 12.109062 -3.735718 -2.866787 -0.0 0.0 -0.0 1.291986 -1.92855 -1.498091 14.80014 0.567465 3.865609 14.242585 -1.341738 -6.660663 19.631987 0.143925 -0.648249 49.51749 -0.446125 -6.181227 0.35303 -1.511151 -0.03194 20.222805 3.684309 2.316626 18.787291 4e-06 -5e-06 10.751636 -0.479869 1.397904 -1e-06 0.0 -0.0 3.27381 0.305947 -0.580112 21.486832 11.830379 2.26613 8.162934 1e-06 -4e-06 18.399103 -3.798986 -4.940582 3e-06 -1e-06 -2e-06 -7.925284 11.105071 -21.75033 0.112491 0.199384 16.95015 1.59607 7.67515 -2.436922 1.60146 -1.935094 -0.63101 0.0 0.0 2e-06 -9.047935 -4.517478 -17.363943 0.055014 0.174555 57.213085 5.028987 -10.040069 4.847488 -1.55223 0.989787 -3.557928 0.0 -0.0 -3e-06 
0.0 0.0 0.0 0.0 -0.0 0.0 -1.030759 99.403313 -0.076508 2.742122 -0.329707 5.56728 -2.920324 -0.259439 -0.414381 -0.696841 1.138152 -4.841745 -0.931387 -0.942127 8.089993 2.252737 1.912394 5.946785 -0.510133 0.429881 -3.837974 -0.277598 0.641981 -5.315456 7.7e-05 -2.2e-05 6e-06 0.026698 -0.028388 -0.063851 0.755767 -3.772015 -10.812104 -0.709253 3.724694 -10.815851 -35.841938 2.667944 16.930117 -32.626991 -10.455684 16.23909 -0.706049 -32.540596 0.388541 15.806137 3.683822 2.776415 -5.882106 9.861284 0.70259 -10.936873 -0.360576 7.156205 1e-06 8.774825 0.0 -16.497711 18.389587 5.832013 -1.844033 2.498504 -2.507278 -10.163601 4.678942 4.621109 -20.976027 -7e-06 0.0 -21.226292 2.451692 -3.593999 1e-06 -6e-06 -1e-06 -1.362682 2.240797 -0.746323 -21.334919 0.584906 3.00832 -13.821218 -6e-06 0.0 -23.887178 -0.249084 -0.839482 -60.510403 2.310721 -1.080833 -0.294024 1.679687 0.833256 -14.218211 0.093213 1.30058 -34.212051 -0.287569 0.967168 -20.033216 0.964532 1.212843 0.0 0.0 -0.0 -3.440389 0.788232 0.501657 -15.928189 -3.167311 2.999706 -6.338827 -2e-06 -0.0 -18.123447 3.64818 -4.905671 -4e-06 -1e-06 -1e-06 21.751692 5.967754 17.894966 52.527641 7.732732 17.249121 -0.377717 39.914379 -0.29564 -13.963699 -10.246449 -3.035943 2.24354 -5.255035 -3.180157 14.282883 -0.826594 6.952502 -2e-06 -12.6906 0.0 16.860968 -17.503584 2.109436 1.665665 -1.955922 -2.878298 4.727797 -4.170586 4.993922 11.020521 3e-06 0.0 12.109048 -3.735714 -2.866783 -0.0 -0.0 -1e-06 1.291986 -1.928549 -1.498087 14.800122 0.567468 3.86561 14.242566 -1.341736 -6.660658 19.631958 0.143926 -0.648245 49.807983 -0.428351 -6.072822 0.353029 -1.51115 -0.031941 20.222784 3.684308 2.316629 18.787268 4e-06 0.0 10.751625 -0.479869 1.397906 0.0 0.0 1e-06 3.273806 0.305946 -0.580111 21.486803 11.830369 2.266133 8.162924 2e-06 -1e-06 18.399075 -3.798985 -4.940573 2e-06 -0.0 -1e-06 -7.453629 11.309071 -19.226807 0.061941 0.145214 14.656599 1.509498 7.396277 -2.138481 1.592461 -1.983875 -0.395229 0.0 0.0 2e-06 -8.823333 -5.005016 -20.639442 0.021113 0.049287 61.882042 4.828173 -9.145347 2.843493 -1.563752 1.011412 -1.881508 0.0 -0.0 -3e-06 
0.0 0.0 0.0 0.0 -0.0 0.0 -0.646193 99.725494 2.309968 2.172369 0.058532 5.237299 -2.896218 -0.366144 -0.265519 -0.596268 0.893241 -4.805623 -0.756352 -1.189301 8.227356 2.687069 1.72454 5.868649 -0.50627 0.369202 -3.848823 -0.250618 0.60999 -4.788763 7.7e-05 -2.3e-05 6e-06 0.022894 -0.009599 -0.079569 0.765152 -3.749732 -10.857759 -0.725497 3.737991 -10.855289 -35.558674 2.052761 16.698248 -31.685329 -11.677248 15.184412 -0.499041 -36.559212 0.264063 17.172304 3.15675 2.088491 -5.882104 9.861288 0.70259 -10.936868 -0.360575 7.156203 0.0 8.774826 -0.0 -16.21628 18.499207 5.947332 -1.844033 2.498506 -2.507277 -10.163599 4.678946 4.621108 -20.976021 -4e-06 -2e-06 -21.226286 2.451696 -3.594003 1e-06 -6e-06 -2e-06 -1.362681 2.240798 -0.746325 -21.334909 0.58491 3.00832 -13.821212 -3e-06 1e-06 -23.887167 -0.249079 -0.839484 -60.446281 2.368111 -1.174974 -0.294025 1.679686 0.833257 -14.218205 0.093215 1.300578 -34.212048 -0.287565 0.967167 -20.033211 0.964535 1.212842 2e-06 1e-06 1e-06 -3.440388 0.788234 0.501655 -15.928183 -3.167309 2.999708 -6.338824 -1e-06 1e-06 -18.123444 3.648183 -4.905673 -5e-06 -0.0 -1e-06 22.044548 5.788533 17.81608 52.171467 7.370942 16.466223 -0.312661 41.140255 -0.218998 -15.098139 -10.039225 -2.069506 2.243543 -5.255041 -3.180159 14.282902 -0.826596 6.952506 -3e-06 -12.690614 1e-06 16.84137 -17.535578 2.092032 1.665667 -1.955922 -2.878302 4.727802 -4.170591 4.993928 11.020535 3e-06 -2e-06 12.10906 -3.735718 -2.866785 0.0 0.0 -1e-06 1.291987 -1.92855 -1.498089 14.800139 0.567468 3.86561 14.242585 -1.341737 -6.660663 19.631985 0.143927 -0.648248 49.894661 -0.366196 -6.052594 0.353029 -1.511152 -0.03194 20.222805 3.684313 2.31663 18.787289 5e-06 -1e-06 10.751636 -0.479868 1.397905 -1e-06 -0.0 -1e-06 3.27381 0.305948 -0.580112 21.486832 11.830385 2.266131 8.162935 2e-06 -2e-06 18.399103 -3.798989 -4.940581 3e-06 -0.0 -0.0 -6.725438 11.330129 -16.550608 -0.000548 0.06005 13.417071 1.354889 7.082736 -3.192657 1.592197 -2.005047 -0.129255 0.0 0.0 2e-06 -8.047551 -5.77285 -23.65239 0.032381 0.010059 63.563263 5.68062 -7.190234 1.150319 -1.546369 1.012096 -1.58258 0.0 -0.0 -3e-06 
0.0 0.0 0.0 0.0 -0.0 0.0 -0.420733 99.992752 4.676552 1.363129 0.472699 5.088945 -2.830488 -0.46172 -0.122005 -0.520075 0.704535 -4.801733 -0.419862 -1.38042 8.282072 3.338118 1.418557 5.725643 -0.487353 0.400189 -3.830948 -0.210581 0.590126 -4.224054 7.7e-05 -2.3e-05 6e-06 0.026236 -0.013988 -0.089108 0.779303 -3.747244 -10.884694 -0.731787 3.724606 -10.876519 -34.637527 1.459151 16.529871 -31.382055 -12.927634 14.252439 -0.232671 -40.859478 0.156191 18.116367 2.773288 1.268785 -5.882109 9.861288 0.70259 -10.936877 -0.360575 7.156207 2e-06 8.774828 -1e-06 -15.937385 18.577209 6.083767 -1.844033 2.498504 -2.507279 -10.163604 4.678945 4.621109 -20.976034 -3e-06 -0.0 -21.226299 2.451697 -3.594002 0.0 -5e-06 -1e-06 -1.362681 2.240797 -0.746324 -21.334925 0.584909 3.00832 -13.821221 -5e-06 -2e-06 -23.887182 -0.249082 -0.839486 -60.329147 2.374738 -1.243352 -0.294023 1.679686 0.833258 -14.218217 0.093215 1.300579 -34.212067 -0.287567 0.967171 -20.033226 0.964535 1.212844 1e-06 1e-06 1e-06 -3.440392 0.788234 0.501656 -15.928198 -3.16731 2.999705 -6.338829 -3e-06 -0.0 -18.123457 3.64818 -4.905674 -5e-06 -0.0 -2e-06 22.374609 5.552031 17.694139 51.9776 6.859393 15.215496 -0.113714 42.214729 -0.12699 -16.426678 -9.965364 -0.973189 2.243545 -5.255039 -3.180159 14.282902 -0.826597 6.952506 -2e-06 -12.690614 1e-06 16.78034 -17.61022 2.119994 1.665668 -1.955921 -2.878299 4.727802 -4.170591 4.993927 11.020535 2e-06 -2e-06 12.10906 -3.735718 -2.866786 -0.0 0.0 -0.0 1.291987 -1.928551 -1.49809 14.800139 0.567468 3.865608 14.242582 -1.341736 -6.660662 19.631981 0.143926 -0.648247 49.934105 -0.351551 -6.07031 0.353029 -1.511153 -0.031939 20.222805 3.684309 2.316628 18.787289 3e-06 -2e-06 10.751636 -0.479869 1.397906 -0.0 -0.0 1e-06 3.273809 0.305946 -0.580111 21.486828 11.830381 2.26613 8.162933 0.0 -3e-06 18.399099 -3.798988 -4.940583 3e-06 -0.0 -0.0 -5.611838 11.336 -14.328721 -0.052654 -0.040709 12.524682 0.995281 6.657049 -4.297961 1.60173 -1.962201 0.037954 -0.0 0.0 2e-06 -6.647025 -6.685427 -26.177259 0.038973 -0.030792 61.908302 7.066018 -4.953676 0.055532 -1.508172 1.003416 -1.551311 0.0 -0.0 -4e-06 
0.0 0.0 0.0 0.0 -0.0 0.0 -0.303094 100.211182 7.056009 0.570698 0.800221 5.133874 -2.790971 -0.490581 -0.02264 -0.48977 0.578709 -4.809762 -0.078249 -1.531103 8.250243 4.076233 1.033303 5.48456 -0.440553 0.516406 -3.779881 -0.087093 0.518689 -3.715796 7.7e-05 -2.2e-05 6e-06 0.031252 -0.020042 -0.091824 0.790672 -3.744877 -10.888602 -0.731895 3.708619 -10.87149 -33.575226 0.89576 16.44482 -31.164618 -14.15323 13.455482 -0.055484 -44.812675 0.137313 18.746687 2.719822 0.469569 -5.88211 9.861288 0.702589 -10.936877 -0.360574 7.156211 -1e-06 8.774827 -3e-06 -15.664687 18.574152 6.236855 -1.844032 2.498504 -2.507278 -10.163604 4.678946 4.621111 -20.976032 -1e-06 0.0 -21.226297 2.451699 -3.594003 -0.0 -7e-06 -1e-06 -1.362681 2.240798 -0.746324 -21.334925 0.584914 3.008326 -13.82122 -0.0 1e-06 -23.88718 -0.249077 -0.839486 -60.224701 2.363017 -1.201948 -0.294025 1.679688 0.833258 -14.218213 0.093215 1.30058 -34.212059 -0.287559 0.96717 -20.033216 0.964539 1.212839 1e-06 2e-06 1e-06 -3.440389 0.788234 0.501657 -15.928192 -3.167309 2.999709 -6.338829 -0.0 1e-06 -18.123455 3.648185 -4.905672 -5e-06 -0.0 -2e-06 22.807735 5.303005 17.538395 51.869118 6.301884 13.952307 0.197721 42.892498 0.009922 -17.506826 -10.005812 0.274381 2.243543 -5.25504 -3.180161 14.282896 -0.826597 6.952507 -1e-06 -12.690609 -0.0 16.714314 -17.665842 2.16083 1.665667 -1.955923 -2.878301 4.727801 -4.170588 4.993926 11.020531 3e-06 -1e-06 12.109058 -3.735717 -2.866786 -0.0 0.0 -1e-06 1.291987 -1.92855 -1.49809 14.800136 0.567468 3.865608 14.242579 -1.341737 -6.660661 19.631973 0.143925 -0.648246 49.899151 -0.395276 -6.110195 0.353028 -1.511151 -0.03194 20.222797 3.684308 2.316631 18.787281 3e-06 -2e-06 10.751633 -0.479869 1.397906 0.0 0.0 1e-06 3.273808 0.305947 -0.580111 21.486818 11.830376 2.266136 8.16293 1e-06 1e-06 18.399092 -3.798987 -4.940577 3e-06 -1e-06 1e-06 -4.473883 11.28076 -12.265681 -0.084621 -0.12686 11.510994 0.541164 6.275959 -5.31874 1.61349 -1.886909 0.132416 0.0 0.0 2e-06 -4.945747 -7.563201 -28.087128 0.023803 -0.075445 57.092007 8.275738 -3.451596 -0.338878 -1.470743 0.99487 -1.669783 0.0 0.0 -3e-06 
